# xmcd
#
# Track frame offsets: 
#        150
#        14889
#        30104
#        50254
#        61514
#        93004
#        109630
#        128257
#        141390
#        168026
#        207596
#
# Disc length: 3016 seconds
#
# Revision: 0
# Processed by: cddbd v1.4PL0 Copyright (c) Steve Scherf et al.
# Submitted via: ExactAudioCopy v0.90b4
#
DISCID=800bc60b
DTITLE=Cuby and The Blizzards - Boom Boom Boom
DYEAR=2003
DGENRE=Blues
TTITLE0=Boom Boom 
TTITLE1=Sugar Mama
TTITLE2=Liquor Blues
TTITLE3=Black Snake
TTITLE4=Faceless Voices
TTITLE5=Dead Drunk
TTITLE6=One Bourbon And One Scotch And One Beer
TTITLE7=I Can't Quit You Baby
TTITLE8=Wreckless Life
TTITLE9=Last Minute Flight
TTITLE10=Warning From The Ice
EXTD=
EXTT0=
EXTT1=
EXTT2=
EXTT3=
EXTT4=
EXTT5=
EXTT6=
EXTT7=
EXTT8=
EXTT9=
EXTT10=
PLAYORDER=
